<?xml version="1.0" encoding="UTF-8"?>
<svg xmlns="http://www.w3.org/2000/svg" viewBox="0 0 80 80">
    <path d="M 58.941406 11.828125 L 52.353516 16.341797 C 51.944145 16.13082 51.488344 16 51 16 L 45 16 C 43.706873 16 42.604868 16.842679 42.1875 18 L 31.458984 18 A 1.0001 1.0001 0 0 0 31.208984 18.029297 C 29.301582 15.135498 26.053046 13.197525 22.355469 13.072266 A 1.0001 1.0001 0 0 0 22 13 A 1.0001 1.0001 0 0 0 21.640625 13.072266 C 15.754691 13.273758 11 18.066262 11 24 C 11 27.894984 13.045019 31.318162 16.111328 33.273438 A 1.0001 1.0001 0 0 0 16.160156 33.373047 L 30.212891 59 L 21 59 C 18.250484 59 16 61.250484 16 64 L 16 70 L 62 70 L 62 64 C 62 61.250484 59.749516 59 57 59 L 46.494141 59 L 30.876953 30.519531 A 1.0001 1.0001 0 0 0 30.859375 30.490234 C 30.983015 30.322007 31.096675 30.145873 31.210938 29.970703 A 1.0001 1.0001 0 0 0 31.458984 30 L 42.1875 30 C 42.604868 31.157321 43.706873 32 45 32 L 51 32 C 51.488344 32 51.944145 31.86918 52.353516 31.658203 L 58.941406 36.171875 L 71.4375 29.355469 L 68.341797 24.710938 L 60.091797 28.835938 L 54 24.484375 L 54 23.515625 L 60.091797 19.164062 L 68.341797 23.289062 L 71.4375 18.644531 L 58.941406 11.828125 z M 59.058594 14.171875 L 68.5625 19.353516 L 67.658203 20.710938 L 59.908203 16.835938 L 54 21.054688 L 54 19 C 54 18.577601 53.906753 18.176677 53.746094 17.810547 L 59.058594 14.171875 z M 22 15 C 26.978937 15 31 19.021063 31 24 C 31 28.978937 26.978937 33 22 33 C 17.021063 33 13 28.978937 13 24 C 13 19.021063 17.021063 15 22 15 z M 22 18 A 1 1 0 0 0 21 19 A 1 1 0 0 0 22 20 A 1 1 0 0 0 23 19 A 1 1 0 0 0 22 18 z M 45 18 L 51 18 C 51.216301 18 51.401424 18.079072 51.5625 18.189453 A 1.0001 1.0001 0 0 0 51.777344 18.388672 C 51.909078 18.557789 52 18.761828 52 19 L 52 22.949219 A 1.0010463 1.0010463 0 0 0 52 23.048828 L 52 24.835938 A 1.0001 1.0001 0 0 0 52 25.154297 L 52 29 C 52 29.238772 51.909685 29.44397 51.777344 29.613281 A 1.0001 1.0001 0 0 0 51.564453 29.810547 C 51.403132 29.921493 51.216901 30 51 30 L 45 30 C 44.455302 30 44.041515 29.591935 44.011719 29.056641 A 1.0001 1.0001 0 0 0 44 28.841797 L 44 28 A 1 1 0 0 0 43 27 A 1 1 0 0 0 42 28 L 32.230469 28 C 32.72157 26.759308 33 25.413092 33 24 C 33 22.585144 32.721997 21.238309 32.230469 20 L 42 20 A 1 1 0 0 0 43 21 A 1 1 0 0 0 44 20 L 44 19 C 44 18.43497 44.43497 18 45 18 z M 25.548828 19.462891 A 1 1 0 0 0 24.828125 19.755859 A 1 1 0 0 0 24.828125 21.169922 A 1 1 0 0 0 26.242188 21.169922 A 1 1 0 0 0 26.242188 19.755859 A 1 1 0 0 0 25.548828 19.462891 z M 18.478516 19.464844 A 1 1 0 0 0 17.755859 19.757812 A 1 1 0 0 0 17.755859 21.171875 A 1 1 0 0 0 19.169922 21.171875 A 1 1 0 0 0 19.169922 19.757812 A 1 1 0 0 0 18.478516 19.464844 z M 17 23 A 1 1 0 0 0 16 24 A 1 1 0 0 0 17 25 A 1 1 0 0 0 18 24 A 1 1 0 0 0 17 23 z M 27 23 A 1 1 0 0 0 26 24 A 1 1 0 0 0 27 25 A 1 1 0 0 0 28 24 A 1 1 0 0 0 27 23 z M 43 23 A 1 1 0 0 0 42 24 A 1 1 0 0 0 43 25 A 1 1 0 0 0 44 24 A 1 1 0 0 0 43 23 z M 18.478516 26.535156 A 1 1 0 0 0 17.757812 26.828125 A 1 1 0 0 0 17.757812 28.242188 A 1 1 0 0 0 19.171875 28.242188 A 1 1 0 0 0 19.171875 26.828125 A 1 1 0 0 0 18.478516 26.535156 z M 25.550781 26.535156 A 1 1 0 0 0 24.828125 26.828125 A 1 1 0 0 0 24.828125 28.242188 A 1 1 0 0 0 26.242188 28.242188 A 1 1 0 0 0 26.242188 26.828125 A 1 1 0 0 0 25.550781 26.535156 z M 54 26.945312 L 59.908203 31.164062 L 67.658203 27.289062 L 68.5625 28.646484 L 59.058594 33.828125 L 53.746094 30.189453 C 53.906753 29.823323 54 29.422399 54 29 L 54 26.945312 z M 22 28 A 1 1 0 0 0 21 29 A 1 1 0 0 0 22 30 A 1 1 0 0 0 23 29 A 1 1 0 0 0 22 28 z M 29.447266 32.070312 L 45.310547 61 L 57 61 C 58.668484 61 60 62.331516 60 64 L 60 68 L 18 68 L 18 64 C 18 62.331516 19.331516 61 21 61 L 33.591797 61 L 19.115234 34.601562 C 20.036547 34.853038 21.00055 35 22 35 C 24.872578 35 27.48511 33.882748 29.447266 32.070312 z M 35 59 A 1 1 0 0 0 34 60 A 1 1 0 0 0 35 61 A 1 1 0 0 0 36 60 A 1 1 0 0 0 35 59 z M 39 59 A 1 1 0 0 0 38 60 A 1 1 0 0 0 39 61 A 1 1 0 0 0 40 60 A 1 1 0 0 0 39 59 z M 43 59 A 1 1 0 0 0 42 60 A 1 1 0 0 0 43 61 A 1 1 0 0 0 44 60 A 1 1 0 0 0 43 59 z"/>
</svg>